<mxfile host="app.diagrams.net" modified="2022-10-18T17:42:18.025Z" agent="5.0 (Windows NT 10.0; Win64; x64) AppleWebKit/537.36 (KHTML, like Gecko) Chrome/106.0.0.0 Safari/537.36 Edg/106.0.1370.42" etag="fa3TPjcsj9MB4de0DAXj" version="20.4.1" type="github">
  <diagram id="k5D5FdbiZcFGo0AucVQJ" name="Page-1">
    <mxGraphModel dx="1185" dy="635" grid="1" gridSize="10" guides="1" tooltips="1" connect="1" arrows="1" fold="1" page="1" pageScale="1" pageWidth="1100" pageHeight="850" math="0" shadow="0">
      <root>
        <mxCell id="0" />
        <mxCell id="1" parent="0" />
        <mxCell id="5-uxLqRWssM_nDEMgzVy-6" value="ised-isde.canada.ca" style="rounded=0;orthogonalLoop=1;jettySize=auto;html=1;entryX=0;entryY=0.5;entryDx=0;entryDy=0;startArrow=block;startFill=1;endArrow=none;endFill=0;fillColor=#d5e8d4;strokeColor=#82b366;strokeWidth=3;edgeStyle=orthogonalEdgeStyle;curved=1;exitX=0.5;exitY=0;exitDx=0;exitDy=0;exitPerimeter=0;" parent="1" source="5-uxLqRWssM_nDEMgzVy-34" target="5-uxLqRWssM_nDEMgzVy-3" edge="1">
          <mxGeometry x="-0.3622" y="-10" relative="1" as="geometry">
            <mxPoint x="230" y="200" as="sourcePoint" />
            <mxPoint as="offset" />
          </mxGeometry>
        </mxCell>
        <mxCell id="5-uxLqRWssM_nDEMgzVy-7" value="ic.gc.ca" style="edgeStyle=orthogonalEdgeStyle;rounded=0;orthogonalLoop=1;jettySize=auto;html=1;exitX=1;exitY=0.5;exitDx=0;exitDy=0;startArrow=none;startFill=0;endArrow=block;endFill=1;fillColor=#d5e8d4;strokeColor=#82b366;strokeWidth=3;curved=1;" parent="1" source="5-uxLqRWssM_nDEMgzVy-3" target="5-uxLqRWssM_nDEMgzVy-40" edge="1">
          <mxGeometry x="-0.1411" y="-2" relative="1" as="geometry">
            <mxPoint x="758" y="160" as="targetPoint" />
            <mxPoint as="offset" />
          </mxGeometry>
        </mxCell>
        <mxCell id="5-uxLqRWssM_nDEMgzVy-3" value="Public Internet" style="aspect=fixed;perimeter=ellipsePerimeter;html=1;align=center;shadow=0;dashed=0;spacingTop=3;image;image=img/lib/active_directory/internet_cloud.svg;labelPosition=center;verticalLabelPosition=middle;verticalAlign=middle;" parent="1" vertex="1">
          <mxGeometry x="331" y="20" width="120" height="75.6" as="geometry" />
        </mxCell>
        <mxCell id="mk5LAerloYVzU-449U8U-26" value="Legacy domain lookups" style="edgeStyle=orthogonalEdgeStyle;curved=1;rounded=1;orthogonalLoop=1;jettySize=auto;html=1;exitX=1;exitY=0.25;exitDx=0;exitDy=0;exitPerimeter=0;startArrow=none;startFill=0;strokeWidth=3;fillColor=#e1d5e7;strokeColor=#9673a6;" parent="1" source="5-uxLqRWssM_nDEMgzVy-34" edge="1">
          <mxGeometry x="0.1429" relative="1" as="geometry">
            <mxPoint x="400" y="240" as="targetPoint" />
            <mxPoint as="offset" />
          </mxGeometry>
        </mxCell>
        <mxCell id="5-uxLqRWssM_nDEMgzVy-34" value="" style="sketch=0;points=[[0,0,0],[0.25,0,0],[0.5,0,0],[0.75,0,0],[1,0,0],[0,1,0],[0.25,1,0],[0.5,1,0],[0.75,1,0],[1,1,0],[0,0.25,0],[0,0.5,0],[0,0.75,0],[1,0.25,0],[1,0.5,0],[1,0.75,0]];outlineConnect=0;fontColor=#232F3E;gradientColor=#945DF2;gradientDirection=north;fillColor=#5A30B5;strokeColor=#ffffff;dashed=0;verticalLabelPosition=bottom;verticalAlign=top;align=center;html=1;fontSize=12;fontStyle=0;aspect=fixed;shape=mxgraph.aws4.resourceIcon;resIcon=mxgraph.aws4.route_53;" parent="1" vertex="1">
          <mxGeometry x="150" y="220" width="80" height="80" as="geometry" />
        </mxCell>
        <mxCell id="5-uxLqRWssM_nDEMgzVy-35" value="&lt;span style=&quot;background-color: rgb(255 , 255 , 255)&quot;&gt;ISED AWS Virtual DC&lt;/span&gt;" style="outlineConnect=0;dashed=0;verticalLabelPosition=bottom;verticalAlign=top;align=center;html=1;shape=mxgraph.aws3.cloud_2;fillColor=#F58534;gradientColor=none;" parent="1" vertex="1">
          <mxGeometry x="40" y="200" width="110" height="120" as="geometry" />
        </mxCell>
        <mxCell id="5-uxLqRWssM_nDEMgzVy-41" value="" style="group;labelPosition=center;verticalLabelPosition=top;align=center;verticalAlign=bottom;" parent="1" vertex="1" connectable="0">
          <mxGeometry x="738.5" y="70" width="160" height="130" as="geometry" />
        </mxCell>
        <mxCell id="5-uxLqRWssM_nDEMgzVy-2" value="ISED Legacy/EDC&lt;br&gt;" style="image;html=1;image=img/lib/clip_art/networking/Cloud_Rack_128x128.png;labelPosition=center;verticalLabelPosition=top;align=center;verticalAlign=bottom;" parent="5-uxLqRWssM_nDEMgzVy-41" vertex="1">
          <mxGeometry x="40" width="120" height="130" as="geometry" />
        </mxCell>
        <mxCell id="5-uxLqRWssM_nDEMgzVy-39" value="" style="verticalLabelPosition=bottom;sketch=0;html=1;fillColor=#A153A0;strokeColor=#ffffff;verticalAlign=top;align=center;points=[[0,0.5,0],[0.125,0.25,0],[0.25,0,0],[0.5,0,0],[0.75,0,0],[0.875,0.25,0],[1,0.5,0],[0.875,0.75,0],[0.75,1,0],[0.5,1,0],[0.125,0.75,0]];pointerEvents=1;shape=mxgraph.cisco_safe.compositeIcon;bgIcon=mxgraph.cisco_safe.design.blank_device;resIcon=mxgraph.cisco_safe.design.secure_dns;" parent="5-uxLqRWssM_nDEMgzVy-41" vertex="1">
          <mxGeometry x="20" width="60" height="65" as="geometry" />
        </mxCell>
        <mxCell id="ct-60XlEYgyjvW3pnbBZ-1" value="Legacy Firewall" style="sketch=0;outlineConnect=0;fontColor=#232F3E;gradientColor=none;fillColor=#BF0816;strokeColor=none;dashed=0;verticalLabelPosition=bottom;verticalAlign=top;align=center;html=1;fontSize=12;fontStyle=0;aspect=fixed;pointerEvents=1;shape=mxgraph.aws4.network_firewall_endpoints;" vertex="1" parent="5-uxLqRWssM_nDEMgzVy-41">
          <mxGeometry x="-8.5" y="60" width="48.5" height="48.5" as="geometry" />
        </mxCell>
        <mxCell id="mk5LAerloYVzU-449U8U-21" style="edgeStyle=orthogonalEdgeStyle;curved=1;rounded=1;orthogonalLoop=1;jettySize=auto;html=1;entryX=0;entryY=0.5;entryDx=0;entryDy=0;entryPerimeter=0;strokeWidth=3;fillColor=#d5e8d4;strokeColor=#82b366;startArrow=classic;startFill=1;" parent="1" source="5-uxLqRWssM_nDEMgzVy-40" target="5-uxLqRWssM_nDEMgzVy-39" edge="1">
          <mxGeometry relative="1" as="geometry" />
        </mxCell>
        <mxCell id="5-uxLqRWssM_nDEMgzVy-40" value="&lt;br&gt;" style="sketch=0;pointerEvents=1;shadow=0;dashed=0;html=1;strokeColor=none;fillColor=#005F4B;labelPosition=center;verticalLabelPosition=top;verticalAlign=bottom;align=center;outlineConnect=0;shape=mxgraph.veeam2.dns;direction=west;rotation=-180;" parent="1" vertex="1">
          <mxGeometry x="613" y="37.8" width="40" height="40" as="geometry" />
        </mxCell>
        <mxCell id="mk5LAerloYVzU-449U8U-12" value="GC Back Bone" style="image;html=1;image=img/lib/clip_art/networking/Cloud_128x128.png;strokeColor=default;fillColor=none;" parent="1" vertex="1">
          <mxGeometry x="720" y="212.5" width="120" height="95" as="geometry" />
        </mxCell>
        <mxCell id="mk5LAerloYVzU-449U8U-25" value="aws.033gc.gc.ca lookups" style="edgeStyle=orthogonalEdgeStyle;curved=1;rounded=1;orthogonalLoop=1;jettySize=auto;html=1;strokeWidth=3;entryX=1;entryY=0.75;entryDx=0;entryDy=0;entryPerimeter=0;fillColor=#dae8fc;strokeColor=#6c8ebf;" parent="1" target="5-uxLqRWssM_nDEMgzVy-34" edge="1">
          <mxGeometry relative="1" as="geometry">
            <mxPoint x="400" y="280" as="sourcePoint" />
            <mxPoint x="280" y="280" as="targetPoint" />
            <Array as="points" />
          </mxGeometry>
        </mxCell>
        <mxCell id="mk5LAerloYVzU-449U8U-27" value="" style="edgeStyle=orthogonalEdgeStyle;curved=1;rounded=1;orthogonalLoop=1;jettySize=auto;html=1;entryX=0.5;entryY=1;entryDx=0;entryDy=0;startArrow=none;startFill=0;strokeWidth=3;fillColor=#d5e8d4;strokeColor=#82b366;" parent="1" source="mk5LAerloYVzU-449U8U-14" target="5-uxLqRWssM_nDEMgzVy-3" edge="1">
          <mxGeometry relative="1" as="geometry" />
        </mxCell>
        <mxCell id="mk5LAerloYVzU-449U8U-14" value="SC2G CEPS team" style="sketch=0;outlineConnect=0;fontColor=#232F3E;gradientColor=none;fillColor=#BF0816;strokeColor=none;dashed=0;verticalLabelPosition=bottom;verticalAlign=top;align=center;html=1;fontSize=12;fontStyle=0;aspect=fixed;pointerEvents=1;shape=mxgraph.aws4.network_firewall_endpoints;" parent="1" vertex="1">
          <mxGeometry x="410" y="215.75" width="88.5" height="88.5" as="geometry" />
        </mxCell>
        <mxCell id="mk5LAerloYVzU-449U8U-23" value="Legacy lookups" style="edgeStyle=orthogonalEdgeStyle;curved=1;rounded=1;orthogonalLoop=1;jettySize=auto;html=1;strokeWidth=3;fillColor=#e1d5e7;strokeColor=#9673a6;startArrow=classic;startFill=1;endArrow=none;endFill=0;" parent="1" source="ct-60XlEYgyjvW3pnbBZ-1" edge="1">
          <mxGeometry x="0.697" y="-20" relative="1" as="geometry">
            <mxPoint x="500" y="260" as="targetPoint" />
            <Array as="points">
              <mxPoint x="640" y="160" />
              <mxPoint x="640" y="260" />
            </Array>
            <mxPoint as="offset" />
            <mxPoint x="680" y="150" as="sourcePoint" />
          </mxGeometry>
        </mxCell>
        <mxCell id="ct-60XlEYgyjvW3pnbBZ-2" value="SSC managed DNS" style="text;html=1;strokeColor=none;fillColor=none;align=center;verticalAlign=middle;whiteSpace=wrap;rounded=0;" vertex="1" parent="1">
          <mxGeometry x="573" y="70" width="120" height="30" as="geometry" />
        </mxCell>
        <mxCell id="ct-60XlEYgyjvW3pnbBZ-19" value="" style="group" vertex="1" connectable="0" parent="1">
          <mxGeometry x="560" y="335" width="225" height="150" as="geometry" />
        </mxCell>
        <mxCell id="ct-60XlEYgyjvW3pnbBZ-12" value="On premise DNS lookups" style="swimlane;fontStyle=0;childLayout=stackLayout;horizontal=1;startSize=30;horizontalStack=0;resizeParent=1;resizeParentMax=0;resizeLast=0;collapsible=1;marginBottom=0;fillColor=#e1d5e7;strokeColor=#9673a6;" vertex="1" parent="ct-60XlEYgyjvW3pnbBZ-19">
          <mxGeometry width="225" height="90" as="geometry">
            <mxRectangle x="680" y="360" width="190" height="30" as="alternateBounds" />
          </mxGeometry>
        </mxCell>
        <mxCell id="ct-60XlEYgyjvW3pnbBZ-13" value="aws.033gc.gc.ca -&gt; AWS over GC-TIP" style="text;strokeColor=#d6b656;fillColor=#fff2cc;align=left;verticalAlign=middle;spacingLeft=4;spacingRight=4;overflow=hidden;points=[[0,0.5],[1,0.5]];portConstraint=eastwest;rotatable=0;" vertex="1" parent="ct-60XlEYgyjvW3pnbBZ-12">
          <mxGeometry y="30" width="225" height="20" as="geometry" />
        </mxCell>
        <mxCell id="ct-60XlEYgyjvW3pnbBZ-14" value="ised-isde.canada.ca -&gt; GC resolver" style="text;strokeColor=#6c8ebf;fillColor=#dae8fc;align=left;verticalAlign=middle;spacingLeft=4;spacingRight=4;overflow=hidden;points=[[0,0.5],[1,0.5]];portConstraint=eastwest;rotatable=0;" vertex="1" parent="ct-60XlEYgyjvW3pnbBZ-12">
          <mxGeometry y="50" width="225" height="20" as="geometry" />
        </mxCell>
        <mxCell id="ct-60XlEYgyjvW3pnbBZ-15" value="ic.gc.ca --&gt; on-premise private" style="text;strokeColor=#82b366;fillColor=#d5e8d4;align=left;verticalAlign=middle;spacingLeft=4;spacingRight=4;overflow=hidden;points=[[0,0.5],[1,0.5]];portConstraint=eastwest;rotatable=0;" vertex="1" parent="ct-60XlEYgyjvW3pnbBZ-12">
          <mxGeometry y="70" width="225" height="20" as="geometry" />
        </mxCell>
        <mxCell id="ct-60XlEYgyjvW3pnbBZ-16" value="everything else --&gt; GC resolver" style="text;strokeColor=#6c8ebf;fillColor=#dae8fc;align=left;verticalAlign=middle;spacingLeft=4;spacingRight=4;overflow=hidden;points=[[0,0.5],[1,0.5]];portConstraint=eastwest;rotatable=0;" vertex="1" parent="ct-60XlEYgyjvW3pnbBZ-19">
          <mxGeometry y="130" width="225" height="20" as="geometry" />
        </mxCell>
        <mxCell id="ct-60XlEYgyjvW3pnbBZ-17" value="prod.prv -&gt; on-premise private" style="text;strokeColor=#82b366;fillColor=#d5e8d4;align=left;verticalAlign=middle;spacingLeft=4;spacingRight=4;overflow=hidden;points=[[0,0.5],[1,0.5]];portConstraint=eastwest;rotatable=0;" vertex="1" parent="ct-60XlEYgyjvW3pnbBZ-19">
          <mxGeometry y="90" width="225" height="20" as="geometry" />
        </mxCell>
        <mxCell id="ct-60XlEYgyjvW3pnbBZ-18" value="pre-prod.prv -&gt; on-premise private" style="text;strokeColor=#82b366;fillColor=#d5e8d4;align=left;verticalAlign=middle;spacingLeft=4;spacingRight=4;overflow=hidden;points=[[0,0.5],[1,0.5]];portConstraint=eastwest;rotatable=0;" vertex="1" parent="ct-60XlEYgyjvW3pnbBZ-19">
          <mxGeometry y="110" width="225" height="20" as="geometry" />
        </mxCell>
        <mxCell id="ct-60XlEYgyjvW3pnbBZ-21" value="aws.033gc.gc.ca" style="edgeStyle=orthogonalEdgeStyle;curved=1;rounded=1;orthogonalLoop=1;jettySize=auto;html=1;strokeWidth=3;fillColor=#dae8fc;strokeColor=#6c8ebf;startArrow=none;startFill=0;" edge="1" parent="1">
          <mxGeometry x="0.0911" relative="1" as="geometry">
            <mxPoint x="510" y="270" as="targetPoint" />
            <Array as="points">
              <mxPoint x="650" y="170" />
              <mxPoint x="650" y="270" />
            </Array>
            <mxPoint as="offset" />
            <mxPoint x="740.0545625" y="170" as="sourcePoint" />
          </mxGeometry>
        </mxCell>
        <mxCell id="ct-60XlEYgyjvW3pnbBZ-22" value="ised-isde.cloud.nuage.gc.ca" style="edgeStyle=orthogonalEdgeStyle;curved=1;rounded=1;orthogonalLoop=1;jettySize=auto;html=1;strokeWidth=3;fillColor=#ffe6cc;strokeColor=#d79b00;startArrow=classicThin;startFill=1;" edge="1" parent="1">
          <mxGeometry x="-0.2857" relative="1" as="geometry">
            <mxPoint x="500" y="290" as="targetPoint" />
            <Array as="points">
              <mxPoint x="530" y="290" />
              <mxPoint x="530" y="290" />
            </Array>
            <mxPoint as="offset" />
            <mxPoint x="720" y="290" as="sourcePoint" />
          </mxGeometry>
        </mxCell>
        <mxCell id="ct-60XlEYgyjvW3pnbBZ-25" value="" style="group" vertex="1" connectable="0" parent="1">
          <mxGeometry x="200" y="335" width="225" height="150" as="geometry" />
        </mxCell>
        <mxCell id="ct-60XlEYgyjvW3pnbBZ-20" value="" style="group;fillColor=#d5e8d4;strokeColor=#82b366;" vertex="1" connectable="0" parent="ct-60XlEYgyjvW3pnbBZ-25">
          <mxGeometry width="225" height="110" as="geometry" />
        </mxCell>
        <mxCell id="ct-60XlEYgyjvW3pnbBZ-7" value="ised-isde.canada.ca -&gt; Route53" style="text;strokeColor=#82b366;fillColor=#d5e8d4;align=left;verticalAlign=middle;spacingLeft=4;spacingRight=4;overflow=hidden;points=[[0,0.5],[1,0.5]];portConstraint=eastwest;rotatable=0;" vertex="1" parent="ct-60XlEYgyjvW3pnbBZ-20">
          <mxGeometry y="90" width="225" height="20" as="geometry" />
        </mxCell>
        <mxCell id="ct-60XlEYgyjvW3pnbBZ-8" value="AWS DNS lookups" style="swimlane;fontStyle=0;childLayout=stackLayout;horizontal=1;startSize=30;horizontalStack=0;resizeParent=1;resizeParentMax=0;resizeLast=0;collapsible=1;marginBottom=0;fillColor=#e1d5e7;strokeColor=#9673a6;" vertex="1" parent="ct-60XlEYgyjvW3pnbBZ-20">
          <mxGeometry width="225" height="90" as="geometry" />
        </mxCell>
        <mxCell id="ct-60XlEYgyjvW3pnbBZ-9" value="prod.prv -&gt; ISED over GC-TIP" style="text;strokeColor=#d6b656;fillColor=#fff2cc;align=left;verticalAlign=middle;spacingLeft=4;spacingRight=4;overflow=hidden;points=[[0,0.5],[1,0.5]];portConstraint=eastwest;rotatable=0;" vertex="1" parent="ct-60XlEYgyjvW3pnbBZ-8">
          <mxGeometry y="30" width="225" height="20" as="geometry" />
        </mxCell>
        <mxCell id="ct-60XlEYgyjvW3pnbBZ-10" value="pre-prod.prv -&gt; ISED over GC-TIP" style="text;strokeColor=#d6b656;fillColor=#fff2cc;align=left;verticalAlign=middle;spacingLeft=4;spacingRight=4;overflow=hidden;points=[[0,0.5],[1,0.5]];portConstraint=eastwest;rotatable=0;" vertex="1" parent="ct-60XlEYgyjvW3pnbBZ-8">
          <mxGeometry y="50" width="225" height="20" as="geometry" />
        </mxCell>
        <mxCell id="ct-60XlEYgyjvW3pnbBZ-11" value="ic.gc.ca --&gt; pending ISED over GC-TIP" style="text;strokeColor=#d6b656;fillColor=#fff2cc;align=left;verticalAlign=middle;spacingLeft=4;spacingRight=4;overflow=hidden;points=[[0,0.5],[1,0.5]];portConstraint=eastwest;rotatable=0;" vertex="1" parent="ct-60XlEYgyjvW3pnbBZ-8">
          <mxGeometry y="70" width="225" height="20" as="geometry" />
        </mxCell>
        <mxCell id="ct-60XlEYgyjvW3pnbBZ-23" value="aws.033gc.gc.ca -&gt; Route53" style="text;strokeColor=#82b366;fillColor=#d5e8d4;align=left;verticalAlign=middle;spacingLeft=4;spacingRight=4;overflow=hidden;points=[[0,0.5],[1,0.5]];portConstraint=eastwest;rotatable=0;" vertex="1" parent="ct-60XlEYgyjvW3pnbBZ-25">
          <mxGeometry y="110" width="225" height="20" as="geometry" />
        </mxCell>
        <mxCell id="ct-60XlEYgyjvW3pnbBZ-24" value="everything else --&gt; Route53 -&gt; Public" style="text;strokeColor=#6c8ebf;fillColor=#dae8fc;align=left;verticalAlign=middle;spacingLeft=4;spacingRight=4;overflow=hidden;points=[[0,0.5],[1,0.5]];portConstraint=eastwest;rotatable=0;" vertex="1" parent="ct-60XlEYgyjvW3pnbBZ-25">
          <mxGeometry y="130" width="225" height="20" as="geometry" />
        </mxCell>
      </root>
    </mxGraphModel>
  </diagram>
</mxfile>
